<?xml version="1.0" encoding="UTF-8"?>
<svg width="16px" height="16px" viewBox="0 0 16 16" version="1.1" xmlns="http://www.w3.org/2000/svg" xmlns:xlink="http://www.w3.org/1999/xlink">
    <!-- Generator: Sketch 61.2 (89653) - https://sketch.com -->
    <title>5CAC8821-07DB-4CE4-BAB1-74B1EC419606</title>
    <desc>Created with Sketch.</desc>
    <g id="Symbols" stroke="none" stroke-width="1" fill="none" fill-rule="evenodd">
        <g id="Powered-by-Sajari.com" transform="translate(-140.000000, 0.000000)" fill="#383B48" fill-rule="nonzero">
            <path d="M149.703804,9 C149.703804,9 150.780159,12.1253449 148.829188,15.5770309 C148.829188,15.5770309 147.768825,17.5071859 147,13.121104 C147,13.121104 149.25112,11.4280345 149.703804,9 Z M148,10 C148,10 146.708953,13.0930741 142.870559,13.9762079 C142.871895,13.9748038 140.748216,14.4942943 143.129837,10.7511551 C143.129837,10.7511551 146.007296,11.3619074 148,10 Z M150,8 C150,8 153.093074,9.29097611 153.976208,13.1291577 C153.974804,13.1291577 154.494294,15.2513834 150.751155,12.8698933 C150.751155,12.8698933 151.361907,9.99259357 150,8 Z M142.878896,7 C142.878896,7 144.571965,9.2511196 147,9.70380376 L146.955313,9.71812764 C146.562317,9.83925733 143.63384,10.6440445 140.422969,8.82918844 C140.422969,8.82918844 138.492814,7.768825 142.878896,7 Z M155.577031,7.17081156 C155.577031,7.17204168 157.507186,8.231175 153.121104,9 C153.121104,9 151.428035,6.7488804 149,6.29619624 C149,6.29619624 152.125345,5.21984124 155.577031,7.17081156 Z M145.248845,3.13010666 C145.248845,3.13010666 144.638093,6.00740643 146,8 C146,8 142.906926,6.70902389 142.023792,2.87084231 C142.025196,2.87084231 141.505706,0.748616565 145.248845,3.13010666 Z M149,2.878896 C149,2.878896 146.74888,4.57196546 146.296196,7 L146.281872,6.95531271 C146.160743,6.5623169 145.355955,3.63383983 147.170812,0.422969053 C147.172042,0.422969053 148.231175,-1.50718592 149,2.878896 Z M152.869893,5.24884491 C152.869893,5.24884491 149.99393,4.63809264 148,6 C148,6 149.290976,2.90692587 153.129158,2.02379213 C153.129158,2.02519616 155.251383,1.50570572 152.869893,5.24884491 Z" id="Sajari-Logo"></path>
        </g>
    </g>
</svg>